<svg id="niceListTabOn.svg" xmlns="http://www.w3.org/2000/svg" xmlns:xlink="http://www.w3.org/1999/xlink" width="310" height="135" viewBox="0 0 310 135">
  <defs>
    <radialGradient id="niceListTabGradient" cx="50%" cy="20%" r="65%" fx="50%" fy="-20%">
      <stop offset="0%" style="stop-color:rgba(44,237,167,1); stop-opacity:1" />
      <stop offset="100%" style="stop-color:rgba(0,133,85,.95); stop-opacity:1" />
    </radialGradient>
    <clipPath id="tabMask">
      <path d="M51.559,36H256.441c4.418,0,9.3,3.582,10.912,8l23.294,84c1.608,4.418-.67,8-5.088,8H22.441c-4.418,0-6.7-3.582-5.088-8L40.647,44C42.255,39.582,47.14,36,51.559,36Z"/>
    </clipPath>
    <filter id="niceListTabActive" x="-10%" y="-20%" width="120%" height="140%">
      <feFlood result="flood" flood-color="rgba(44,237,167,.25)" flood-opacity="1"></feFlood>
      <feComposite in="flood" result="mask" in2="SourceGraphic" operator="in"></feComposite>
      <feMorphology in="mask" result="dilated" operator="dilate" radius="2"></feMorphology>
      <feGaussianBlur in="dilated" result="blurred" stdDeviation="12"></feGaussianBlur>
      <feComposite in="blurred" in2="SourceGraphic" operator="arithmetic" k2="1" k3="-1" result="nocombine"></feComposite>

      <feOffset result="offset" in="SourceAlpha"/>
      <feGaussianBlur result="blur" stdDeviation="6"/>
      <feFlood result="flood" flood-opacity="0.35"/>
      <feComposite result="composite" operator="in" in2="blur"/>
      <feBlend result="shadow" in="SourceGraphic"/>

      <feMerge>
        <feMergeNode in="nocombine"></feMergeNode>
        <feMergeNode in="shadow"></feMergeNode>
        <feMergeNode in="SourceGraphic"></feMergeNode>
      </feMerge>
    </filter>
  </defs>
  <!-- <rect width="310" height="135" style="fill:gray" /> -->
  <path id="Base" fill="url(#niceListTabGradient)" filter="url(#niceListTabActive)" d="M51.559,36H256.441c4.418,0,9.3,3.582,10.912,8l23.294,84c1.608,4.418-.67,8-5.088,8H22.441c-4.418,0-6.7-3.582-5.088-8L40.647,44C42.255,39.582,47.14,36,51.559,36Z" transform="translate(0 -11)"/>
  <rect id="strip" y="105" width="305" height="11" style="fill:rgba(0,78,50,.2)" clip-path="url(#tabMask)" transform="translate(0 -11)" />
</svg>
